<?xml version="1.0" encoding="utf-8"?>
<!-- Generator: Adobe Illustrator 22.0.1, SVG Export Plug-In . SVG Version: 6.00 Build 0)  -->
<svg version="1.1" id="Capa_1" xmlns="http://www.w3.org/2000/svg" xmlns:xlink="http://www.w3.org/1999/xlink" x="0px" y="0px"
	 viewBox="0 0 1080 1080" style="enable-background:new 0 0 1080 1080;" xml:space="preserve">
<style type="text/css">
	.st0{fill:#FFFFFF;}
</style>
<path class="st0" d="M631.8,705.8c-7.5,0-14.8-3.7-19-10.5l-19.3-30.5c-0.5-0.7-0.8-1.4-1.1-2c-5.4,1.2-19.2,4-37,4
	c-17.7,0-31.7-3-37.3-4.4c-0.1,0.2-0.3,0.5-0.4,0.7L498.9,695c-3.1,5.1-8.1,8.8-14,10.2c-5.9,1.4-11.9,0.4-17-2.7l-35.2-21.2
	c-9.8-6-13.5-18.4-8.6-28.8l0.3-0.5l11.6-20.3c0.3-0.7,0.6-1.3,0.9-1.9c0,0,0,0,0-0.1c-0.2-0.1-0.4-0.2-0.6-0.2
	c-19.2-8.1-53.3-46.7-57.9-88.9c-21.1,6-34,2-41.3-2.8c-14.2-9.4-16.8-27.3-14.6-39.8c2.4-14,14.1-25.5,26.5-26.1
	c11.6-0.6,19.2,5.1,21.5,11.1c2.1,5.2-1.2,9.5-3.5,12.6c-1.7,2.2-3.4,4.5-3.6,6.7c-0.2,2.2,0.9,4.6,2.5,6.1c0.8,0.8,1.7,1.2,2.3,1
	c3.2-0.5,7.4-2.7,9.8-4.2c5.2-34.6,22.6-63.9,51.9-87.1c23-18.3,46-26.7,52.5-28.8c2.4-0.8,24.1-7.8,53.1-10.4l1.2,13.9
	c-27.5,2.5-47.7,9-49.9,9.7c-6,2-27.1,9.7-48.3,26.5c-27.1,21.5-43,48.8-47.1,80.9c-0.4,2.9-1.7,4.8-8.6,8.6
	c-3.1,1.7-7.8,3.9-12.5,4.7c-4.9,0.8-10-0.9-14-4.5c-4.8-4.4-7.5-11.1-7-17.5c0.5-6.3,4-11,6.4-14.1c0,0,0.1-0.1,0.1-0.1
	c-1.2-0.6-3.3-1.2-6.2-1.1c-5.2,0.3-12.1,6.3-13.5,14.5c-1.5,9,0.5,20.4,8.5,25.7c5.4,3.6,16.1,6.3,36.3-1.1
	c1.9-0.7,4.7-1.7,7.7,0.4l3,2.1l0,3.7c0,17.6,6.8,37.3,19.2,55.5c11.2,16.4,23.7,27,30.7,29.9c3.8,1.6,8.1,3.4,9.8,7.8
	c1.6,4.1-0.2,7.7-2,11.5c-0.3,0.6-0.6,1.3-1,2l-0.3,0.5l-11.6,20.3c-1.7,3.9-0.3,8.4,3.3,10.6l35.2,21.2c2,1.2,4.3,1.6,6.5,1.1
	c2.2-0.5,4.1-1.9,5.2-3.8l18.6-31.8c0.5-0.9,0.7-1.4,0.9-1.9c2.2-6.2,7.1-6.1,10.7-6.1l1.2,0l0.9,0.3c0.1,0,15.4,4.5,36,4.5
	c20.7,0,35.6-4,35.7-4.1l1-0.3l1,0c6,0.1,9,1.9,11.2,6.7c0.3,0.7,0.6,1.3,1.1,2.1l19.3,30.5c2.4,3.9,7.4,5.1,11.4,2.9l36.1-20.3
	c1.4-0.8,2.1-2.7,2.4-3.8c1-3.8,0.3-8.7-1.6-11.7l-9.7-15.5c-0.5-0.9-1-1.6-1.4-2.2c-4.8-7.2-2.9-11,2.7-16.1l1.2-1.1l0.6-0.4
	c0.1,0,7.4-4.7,15.4-12.6c8-8,13-15.9,13.1-15.9l0.5-0.8l0.7-0.6c4.2-3.9,9.6-6,15.3-6h27.4c4.7,0,8.5-3.8,8.5-8.5v-60
	c0-4.8-4.7-9.8-9.3-9.8h-3.5c-0.8,0-1.5,0-2.2,0c-4.3,0.1-10.1,0.3-14.6-7.4l-0.5-0.8l-0.2-0.9c-1.6-6.5-6.9-25.3-12.2-34
	c-6.3-10.3-19-20.4-19.1-20.5l-1.1-0.8l-0.7-1.2c-1.7-3-2.7-6.3-2.9-9.7l0-0.5l2.7-40.9c-0.2-2.5-0.6-3.7-0.8-4.2
	c-0.6,0.1-1.9,0.3-4.2,1.4l-31.6,18.8c-4.4,2.1-9.5,2.8-14.3,1.8l-0.6-0.1l-0.6-0.2c-0.2-0.1-18.6-7.3-43.1-11.4l2.3-13.8
	c23.6,3.9,41.5,10.5,45.3,11.9c1.6,0.2,3.2,0,4.7-0.7l31.6-18.8c2.7-1.3,10.8-5.2,17.7-1.2c6.9,4.1,7.5,13.1,7.7,16l0,0.5l-2.7,40.8
	c0.1,0.8,0.3,1.6,0.6,2.3c3.7,3.1,14.8,12.8,21.1,23.2c6.5,10.7,12,30.9,13.5,36.5c0.5,0,1.1,0,1.6,0c0.8,0,1.7-0.1,2.7-0.1h3.5
	c12.4,0,23.3,11.1,23.3,23.8v60c0,12.4-10.1,22.5-22.5,22.5h-27.4c-1.9,0-3.7,0.6-5.2,1.8c-1.7,2.5-6.9,9.9-14.4,17.4
	c-7.6,7.6-14.7,12.5-17.1,14.1c0.2,0.3,0.4,0.7,0.7,1.1l9.7,15.5c3.9,6.3,5.2,15.2,3.2,22.6c-1.5,5.7-4.6,10-9,12.5l-36.1,20.3
	C639.4,704.8,635.6,705.8,631.8,705.8z M377.7,508.1C377.7,508.1,377.7,508.2,377.7,508.1C377.7,508.2,377.7,508.1,377.7,508.1z
	 M730.2,491.8C730.2,491.8,730.2,491.8,730.2,491.8C730.2,491.8,730.2,491.8,730.2,491.8z"/>
<circle class="st0" cx="658.7" cy="478.6" r="15.3"/>
<path class="st0" d="M560.8,400.8c-4,0-7.2-3.2-7.2-7.2c0-0.8,0.1-1.6,0.4-2.3v-16.4l-1.7-15.1c-0.4-1.5-0.5-3.1-0.6-5.1
	c-0.1-2.1-0.2-6-1.2-8.5l-4,0c-6.6,7-22.7,20.2-49.5,20.2c-3.9,0-7.9-0.3-12.2-0.9c-41.6-5.8-56.3-41.4-57.8-45.5
	c-0.7-2-0.7-4.1,0-6.1c3.5-9.1,28.1-43.9,75.5-33.9c19.6,4.1,43.4,14.9,49.7,42.3l1.6-10.1c-0.3-1.4-0.2-2.9,0.3-4.3
	c0.1-0.2,0.2-0.5,0.5-0.9c0.6-1.4,1.7-2.7,3.1-3.4c1.1-0.6,2.4-0.9,3.7-0.9c4.3,0,8.8,2.7,8.8,7.6c0,1.5-0.5,3-1.4,4.2l1.5,8.2
	c6.4-12.5,23.2-34.1,62.6-30.6c49.1,4.4,60.3,31.6,62.1,37c0.7,2.1,0.5,4.3-0.4,6.3c-1.9,4-19.9,38.9-60.9,38.3
	c-33.3-0.5-52.5-15.8-59.7-23c-1.4-0.2-2.9-0.8-4.3-1.9c-1,1.2-0.9,2-0.6,3.5c0.3,1.7,0.7,4.6-1.1,7.5c0,0.1-0.1,0.1-0.1,0.2v14.2
	l1.8,16.2c0.7,1.7,0.7,3.6,0,5.4c-0.4,0.9-1.9,3.8-5.6,4.3C563.2,400.5,562,400.8,560.8,400.8z M579.4,337c1.2,0.5,2.3,1.2,3.2,2.3
	c3,3.3,19.4,19.9,51.4,20.4c28.5,0.4,42.9-21.1,47-28.3c-2.8-6-13.7-22.2-49.2-25.4c-39.7-3.5-49.6,23.1-51.2,28.5
	C580.4,335.4,580,336.3,579.4,337z M441.2,317.3c3.5,7.7,16.2,30.2,45.7,34.3c31,4.3,47-11.7,51.1-16.7c0.6-0.7,1.3-1.3,2.1-1.8
	c-0.2-0.5-0.3-1-0.4-1.5c-0.1-0.4-0.2-1-0.3-1.8c-0.9-7-3.7-28.4-39.7-36.1C463.3,286,445.3,310.6,441.2,317.3z M578.7,349.9
	C578.6,349.9,578.6,349.9,578.7,349.9C578.6,349.9,578.6,349.9,578.7,349.9z M572.2,348.6C572.2,348.6,572.2,348.6,572.2,348.6
	C572.2,348.6,572.2,348.6,572.2,348.6z M571.3,347.3L571.3,347.3L571.3,347.3z M548.8,343.9C548.8,343.9,548.8,343.9,548.8,343.9
	C548.8,343.9,548.8,343.9,548.8,343.9z"/>
<path class="st0" d="M561,301.3L561,301.3c5.8,0,10.5,4.7,10.5,10.5v81c0,5.8-4.7,10.5-10.5,10.5l0,0c-5.8,0-10.5-4.7-10.5-10.5v-81
	C550.6,306,555.3,301.3,561,301.3z"/>
<path class="st0" d="M577.9,343.7c-2.9,0-5.7-1.9-6.6-4.8c-1.2-3.7,0.8-7.6,4.4-8.9c6.3-2.1,38.3-12.2,53.6-5.8
	c3.6,1.5,5.3,5.6,3.8,9.1c-1.5,3.6-5.6,5.3-9.1,3.8c-7.8-3.2-30.3,1.7-43.8,6.2C579.4,343.6,578.6,343.7,577.9,343.7z"/>
<path class="st0" d="M550.6,342.3c-1.3,0-2.7-0.4-3.8-1.2l0,0c-11.2-7.4-44.9-24.9-65.9-17.9c-3.7,1.2-7.6-0.8-8.9-4.4
	c-1.2-3.7,0.8-7.6,4.4-8.9c31.9-10.6,76.2,18.2,78.1,19.5c3.2,2.1,4.1,6.5,2,9.7C555.1,341.2,552.8,342.3,550.6,342.3z"/>
<path class="st0" d="M588.2,427.2c-1.4,0-2.7-0.4-3.9-1.2c0,0-8.2-5.3-23.2-5.3c-15.4,0-25.9,5.6-26,5.6c-3.4,1.8-7.6,0.6-9.5-2.8
	c-1.9-3.4-0.7-7.6,2.7-9.5c0.5-0.3,13.5-7.4,32.7-7.4c19.3,0,30,6.9,31.1,7.7c3.2,2.2,4,6.5,1.8,9.7
	C592.7,426.1,590.5,427.2,588.2,427.2z"/>
<g>
	<g>
		<path class="st0" d="M387.2,799.2c4.4-3.9,7.1-9.2,8-15.9h2.1c-1,7.1-3.8,12.9-8.5,17.3c-4.7,4.4-10.7,6.6-18,6.6
			c-5.4,0-10.1-1.4-14.4-4.2c-4.2-2.8-7.5-6.8-9.9-12.1c-2.4-5.3-3.6-11.5-3.6-18.6c0-7.1,1.2-13.4,3.6-18.6
			c2.4-5.3,5.7-9.3,9.9-12.1c4.2-2.8,9-4.2,14.4-4.2c5.6,0,10.5,1.4,14.5,4.2c4,2.8,7,6.4,9,10.9c2,4.5,3.1,9.2,3.1,14.1
			c0,3,0,5.3-0.1,6.8h-52.2c0.1,7,1.3,12.8,3.7,17.5c2.4,4.7,5.5,8.2,9.4,10.5c3.9,2.3,8.1,3.5,12.6,3.5
			C377.3,805,382.8,803.1,387.2,799.2z M358.2,743.2c-3.9,2.3-7,5.8-9.4,10.5c-2.4,4.7-3.6,10.5-3.7,17.5h50.3
			c0.4-7-0.6-12.8-2.8-17.5c-2.2-4.7-5.3-8.2-9.2-10.5c-3.9-2.3-8.1-3.5-12.6-3.5C366.3,739.8,362.1,740.9,358.2,743.2z"/>
		<path class="st0" d="M411,753.8c2.4-5.3,5.7-9.3,9.9-12.1c4.2-2.8,9-4.2,14.4-4.2c7.4,0,13.4,2.2,18,6.6
			c4.7,4.4,7.5,10.2,8.5,17.3h-2.1c-0.9-6.7-3.6-12-8-15.9c-4.4-3.9-9.9-5.8-16.4-5.8c-4.6,0-8.9,1.2-12.8,3.6
			c-3.9,2.4-7,6-9.4,10.9c-2.4,4.9-3.5,10.9-3.5,18.1c0,7.2,1.2,13.3,3.5,18.1c2.4,4.9,5.5,8.5,9.4,10.9c3.9,2.4,8.2,3.6,12.8,3.6
			c6.5,0,12-1.9,16.4-5.8c4.4-3.9,7.1-9.2,8-15.9h2.1c-1,7.1-3.8,12.9-8.5,17.3c-4.7,4.4-10.7,6.6-18,6.6c-5.4,0-10.1-1.4-14.4-4.2
			c-4.2-2.8-7.5-6.8-9.9-12.1c-2.4-5.3-3.6-11.5-3.6-18.6C407.4,765.3,408.6,759,411,753.8z"/>
		<path class="st0" d="M485.5,803.1c-4.3-2.8-7.7-6.8-10.1-12.1c-2.5-5.2-3.7-11.4-3.7-18.6c0-7.1,1.2-13.3,3.7-18.6
			c2.5-5.2,5.8-9.3,10.1-12.1c4.3-2.8,9.1-4.2,14.5-4.2c5.4,0,10.2,1.4,14.5,4.2c4.3,2.8,7.6,6.8,10.1,12.1
			c2.4,5.3,3.6,11.4,3.6,18.6c0,7.1-1.2,13.3-3.6,18.6c-2.4,5.3-5.8,9.3-10.1,12.1c-4.3,2.8-9.1,4.2-14.5,4.2
			C494.7,807.3,489.8,805.9,485.5,803.1z M512.9,801.4c3.9-2.4,7.1-6,9.5-10.9c2.4-4.9,3.6-10.9,3.6-18.1c0-7.2-1.2-13.3-3.6-18.1
			c-2.4-4.9-5.6-8.5-9.5-10.9c-3.9-2.4-8.2-3.6-12.9-3.6c-4.6,0-8.9,1.2-12.9,3.6c-4,2.4-7.2,6-9.6,11c-2.4,4.9-3.6,10.9-3.6,18.1
			c0,7.1,1.2,13.2,3.6,18.1c2.4,4.9,5.6,8.6,9.6,11c4,2.4,8.3,3.6,12.9,3.6C504.6,805,508.9,803.8,512.9,801.4z"/>
	</g>
</g>
<g>
	<g>
		<path class="st0" d="M595.8,783.9c1.2,5,3.4,8.7,6.5,11c3.2,2.3,7.1,3.4,11.8,3.4c3.5,0,6.8-0.6,9.7-1.8c3-1.2,5.4-2.5,7.2-3.9
			c1.2,0.8,2.1,1.9,2.9,3.3c0.8,1.4,1.1,2.9,1.1,4.4c0,2-0.6,3.7-1.7,5.3c-1.1,1.5-2.7,2.8-4.7,3.9c-2,1.1-4.3,1.9-7,2.5
			c-2.7,0.6-5.6,0.9-8.7,0.9c-4.9,0-9.5-0.8-13.5-2.4c-4.1-1.6-7.5-4-10.4-7.2c-2.9-3.2-5.2-7.2-6.8-11.9
			c-1.6-4.7-2.5-10.3-2.5-16.6c0-6.1,0.8-11.4,2.4-16c1.6-4.5,3.8-8.3,6.5-11.4c2.7-3.1,5.9-5.3,9.5-6.8c3.6-1.5,7.4-2.2,11.4-2.2
			c4.1,0,7.9,0.8,11.3,2.3c3.4,1.5,6.4,3.7,8.8,6.4c2.4,2.7,4.3,6,5.7,9.8c1.4,3.8,2.1,7.9,2.1,12.4c0,2.8-0.6,4.8-1.8,6.2
			c-1.2,1.4-2.9,2.3-5.1,2.7L595.8,783.9z M609.8,752.4c-4.1,0-7.5,1.6-10.3,4.8c-2.8,3.2-4.3,7.8-4.7,13.7l27.9-4.9
			c-0.3-3.6-1.6-6.8-3.6-9.5C617,753.8,613.9,752.4,609.8,752.4z"/>
		<path class="st0" d="M677.4,753.3c-2.5,0-4.8,0.5-7,1.5c-2.1,1-4,2.4-5.5,4.3c-1.6,1.9-2.8,4.2-3.7,7c-0.9,2.8-1.4,6-1.4,9.6
			c0,7.3,1.6,12.8,4.9,16.5c3.3,3.7,7.5,5.5,12.7,5.5c2.9,0,5.5-0.5,7.6-1.4c2.1-0.9,4-1.9,5.7-3c1.2,1,2.1,2.1,2.8,3.4
			c0.7,1.3,1.1,2.8,1.1,4.4c0,3.4-1.7,6.1-5,8.3c-3.4,2.2-7.9,3.3-13.6,3.3c-4.8,0-9.2-0.8-13.1-2.3c-4-1.5-7.4-3.8-10.3-7
			c-2.9-3.1-5.1-7-6.6-11.6c-1.6-4.6-2.3-10-2.3-16.1c0-6.2,0.8-11.7,2.5-16.4c1.7-4.7,4-8.6,6.9-11.7c2.9-3.1,6.3-5.4,10.1-7
			c3.9-1.5,8-2.3,12.3-2.3c5.6,0,10.1,1.2,13.5,3.5c3.4,2.3,5,5.2,5,8.5c0,1.6-0.4,3-1.1,4.3c-0.7,1.3-1.5,2.3-2.5,3.1
			c-1.7-1.1-3.5-2.1-5.6-3C682.9,753.8,680.4,753.3,677.4,753.3z"/>
		<path class="st0" d="M761.1,775.5c0,5.7-0.7,10.9-2.2,15.5c-1.5,4.6-3.5,8.5-6.2,11.8c-2.7,3.3-5.9,5.7-9.7,7.5
			c-3.8,1.7-8,2.6-12.7,2.6c-4.7,0-8.9-0.9-12.7-2.6c-3.8-1.7-7-4.2-9.7-7.4c-2.7-3.2-4.8-7.1-6.2-11.7c-1.5-4.6-2.2-9.8-2.2-15.6
			c0-5.7,0.7-10.9,2.2-15.5c1.5-4.6,3.6-8.5,6.3-11.7c2.7-3.2,6-5.7,9.8-7.4c3.8-1.7,8-2.6,12.6-2.6c4.6,0,8.8,0.9,12.6,2.6
			c3.8,1.7,7,4.2,9.8,7.5c2.7,3.3,4.8,7.2,6.3,11.8C760.4,764.8,761.1,769.9,761.1,775.5z M730.3,753.1c-4.5,0-8.1,1.9-10.7,5.8
			c-2.6,3.9-3.9,9.4-3.9,16.5c0,7.2,1.3,12.7,3.8,16.6c2.6,3.8,6.1,5.8,10.8,5.8c4.6,0,8.2-1.9,10.8-5.8c2.6-3.9,3.8-9.4,3.8-16.5
			c0-7.1-1.3-12.6-3.9-16.5C738.4,755.1,734.8,753.1,730.3,753.1z"/>
	</g>
</g>
<rect x="550.8" y="733.7" class="st0" width="4" height="73"/>
</svg>
