<?xml version="1.0" encoding="utf-8"?>
<!-- Generator: Adobe Illustrator 22.0.1, SVG Export Plug-In . SVG Version: 6.00 Build 0)  -->
<svg version="1.1" xmlns="http://www.w3.org/2000/svg" xmlns:xlink="http://www.w3.org/1999/xlink" x="0px" y="0px"
	 viewBox="0 0 1006.9 1080" style="enable-background:new 0 0 1006.9 1080;" xml:space="preserve">
<style type="text/css">
	.st0{display:none;}
	.st1{display:inline;fill:#45B449;}
	.st2{fill:#FFFFFF;}
</style>
<g id="Capa_2" class="st0">
	<rect class="st1" width="1755" height="1080"/>
</g>
<g id="Capa_1">
	<g>
		<path class="st2" d="M668.9,931.3c-13.7,0-27.1-6.9-34.9-19.3l-35.3-55.7c-0.8-1.3-1.5-2.5-2.1-3.6c-9.8,2.3-35.1,7.2-67.8,7.2
			c-32.4,0-58-5.4-68.3-8c-0.2,0.4-0.5,0.9-0.8,1.3l-34.1,58.3c-5.7,9.4-14.8,16-25.5,18.6c-10.7,2.6-21.8,0.8-31.2-5l-64.3-38.7
			c-18-11.1-24.7-33.7-15.8-52.6l0.5-0.9l21.3-37.2c0.6-1.3,1.2-2.4,1.7-3.5c0,0,0-0.1,0.1-0.1c-0.3-0.1-0.7-0.3-1.1-0.5
			c-35.1-14.8-97.6-85.5-106-162.7c-38.6,11-62.2,3.6-75.5-5.2c-26.1-17.1-30.7-49.9-26.8-72.8c4.4-25.6,25.7-46.6,48.6-47.8
			c21.2-1.1,35.1,9.4,39.4,20.2c3.8,9.5-2.1,17.3-6.4,23c-3.1,4.1-6.3,8.3-6.6,12.3c-0.3,3.9,1.6,8.5,4.6,11.2
			c1.5,1.4,3.1,2.1,4.2,1.9c5.9-1,13.6-5,18-7.7c9.4-63.3,41.4-116.9,94.9-159.4c42.1-33.4,84.2-48.8,96.2-52.7
			c4.4-1.5,44-14.3,97.2-19l2.3,25.5c-50.3,4.5-87.3,16.4-91.4,17.8c-11,3.6-49.6,17.7-88.3,48.5c-49.7,39.4-78.7,89.2-86.2,148.1
			c-0.7,5.3-3.1,8.8-15.8,15.8c-5.7,3.1-14.2,7.1-22.8,8.5c-8.9,1.5-18.3-1.6-25.6-8.3c-8.8-8.1-13.7-20.3-12.8-32
			c0.9-11.5,7.4-20.1,11.7-25.8c0.1-0.1,0.1-0.2,0.2-0.3c-2.3-1.2-6-2.2-11.4-2c-9.6,0.5-22.1,11.6-24.7,26.6
			c-2.8,16.5,0.9,37.4,15.6,47.1c9.9,6.5,29.5,11.5,66.5-2c3.4-1.3,8.6-3.1,14.2,0.7l5.5,3.8l0,6.7c0,32.3,12.5,68.4,35.2,101.6
			c20.5,30,43.5,49.4,56.2,54.8c7,2.9,14.8,6.3,17.8,14.2c2.9,7.6-0.3,14.1-3.7,21.1c-0.5,1.1-1.1,2.4-1.8,3.7l-0.5,0.9l-21.2,37.1
			c-3.1,7.1-0.5,15.4,6.1,19.5l64.3,38.7c3.7,2.2,7.8,2.9,11.9,1.9c4-1,7.4-3.4,9.6-6.9l34.1-58.3c1-1.6,1.3-2.5,1.6-3.4
			c4-11.4,13.1-11.2,19.7-11.1l2.2,0l1.7,0.5c0.3,0.1,28.2,8.2,65.9,8.2c37.8,0,65.2-7.4,65.4-7.4l1.8-0.5l1.9,0
			c11.1,0.2,16.4,3.4,20.4,12.3c0.6,1.2,1.1,2.4,2,3.9l35.3,55.7c4.4,7.1,13.6,9.4,20.8,5.3l66-37.2c2.5-1.4,3.8-5,4.3-7
			c1.8-6.9,0.6-15.9-2.9-21.5l-17.7-28.5c-1-1.6-1.9-2.9-2.6-4c-8.7-13.2-5.4-20.1,4.9-29.5l2.2-2l1-0.6c0.1-0.1,13.6-8.6,28.2-23.1
			c14.6-14.6,23.9-29,24-29.2l0.9-1.4l1.2-1.1c7.6-7.1,17.6-11,28-11h50.2c8.6,0,15.6-7,15.6-15.6V582.1c0-8.8-8.5-17.8-16.9-17.8
			h-6.4c-1.5,0-2.8,0-4.1,0.1c-7.8,0.3-18.6,0.6-26.6-13.5l-0.9-1.5l-0.4-1.7c-3-11.9-12.7-46.3-22.4-62.2
			c-11.5-18.9-34.7-37.4-34.9-37.6l-1.9-1.5l-1.2-2.1c-3.1-5.4-4.9-11.6-5.3-17.8l-0.1-0.8l5-74.9c-0.4-4.5-1.1-6.8-1.6-7.8
			c-1.1,0.1-3.5,0.6-7.8,2.6l-57.9,34.5c-8.1,3.9-17.3,5.1-26.1,3.3l-1.1-0.2l-1.1-0.4c-0.3-0.1-34.1-13.4-78.8-20.8l4.2-25.3
			c43.1,7.1,76,19.2,82.8,21.8c2.9,0.4,5.9,0,8.5-1.2l57.9-34.5c4.9-2.4,19.7-9.5,32.5-2.1c12.7,7.4,13.8,23.9,14.1,29.3l0.1,0.8
			l-5,74.8c0.2,1.4,0.5,2.9,1.1,4.2c6.8,5.7,27,23.4,38.6,42.5c12,19.7,22.1,56.6,24.7,66.8c0.9,0,2,0,2.9-0.1
			c1.5,0,3.1-0.1,4.9-0.1h6.4c22.7,0,42.6,20.3,42.6,43.5v109.8c0,22.7-18.5,41.2-41.2,41.2H814c-3.5,0-6.8,1.2-9.6,3.3
			c-3.1,4.6-12.6,18.1-26.4,31.9c-14,14-27,23-31.3,25.8c0.4,0.6,0.8,1.2,1.2,1.9l17.7,28.5c7.1,11.5,9.4,27.7,5.9,41.4
			c-2.7,10.4-8.4,18.3-16.5,22.9l-66,37.2C682.7,929.5,675.7,931.3,668.9,931.3z M203.8,569.5C203.8,569.5,203.8,569.6,203.8,569.5
			C203.8,569.6,203.8,569.5,203.8,569.5z M848.9,539.6C848.9,539.6,848.9,539.6,848.9,539.6C848.9,539.6,848.9,539.6,848.9,539.6z"
			/>
		<circle class="st2" cx="718" cy="515.4" r="27.9"/>
		<path class="st2" d="M538.9,373.1c-7.3,0-13.2-5.9-13.2-13.2c0-1.5,0.2-2.9,0.7-4.3v-30.1l-3-27.6c-0.8-2.7-0.9-5.6-1-9.3
			c-0.1-3.9-0.4-11-2.1-15.6l-7.3,0.1c-12.1,12.8-41.5,36.9-90.6,36.9c-7.1,0-14.5-0.5-22.4-1.6c-76.2-10.7-103-75.8-105.8-83.2
			c-1.4-3.6-1.4-7.6,0-11.2c6.5-16.7,51.4-80.4,138.1-62c35.8,7.6,79.4,27.2,90.9,77.4l2.9-18.5c-0.6-2.6-0.4-5.3,0.6-7.8
			c0.2-0.4,0.4-1,0.9-1.7c1.2-2.6,3.2-4.9,5.8-6.3c2.1-1.1,4.4-1.7,6.9-1.7c7.8,0,16.1,4.9,16.1,13.9c0,2.8-0.9,5.5-2.5,7.7
			l2.7,14.9c11.7-22.8,42.5-62.4,114.6-56c89.9,8,110.4,57.9,113.6,67.8c1.2,3.8,1,7.9-0.8,11.6c-3.5,7.3-36.4,71.2-111.5,70.1
			c-61-1-96.1-29-109.2-42.2c-2.6-0.4-5.2-1.5-7.8-3.5c-1.8,2.2-1.6,3.6-1.2,6.3c0.5,3.2,1.3,8.5-2,13.7c-0.1,0.1-0.1,0.2-0.2,0.3
			v26l3.3,29.7c1.3,3.1,1.4,6.6,0,9.9c-0.7,1.7-3.4,6.9-10.3,7.8C543.2,372.5,541.1,373.1,538.9,373.1z M573,256.3
			c2.2,0.9,4.3,2.3,5.9,4.1c5.4,6.1,35.4,36.4,94,37.3c52.1,0.8,78.6-38.5,86-51.8c-5.1-10.9-25-40.7-90-46.5
			c-72.7-6.5-90.8,42.3-93.7,52.2C574.7,253.4,573.9,254.9,573,256.3z M319.9,220.3c6.4,14,29.6,55.3,83.7,62.8
			c56.7,7.9,86-21.4,93.6-30.6c1.1-1.3,2.4-2.5,3.9-3.3c-0.3-0.9-0.6-1.8-0.8-2.7c-0.1-0.8-0.3-1.9-0.5-3.3
			c-1.7-12.9-6.7-52.1-72.7-66.1C360.4,163,327.5,207.9,319.9,220.3z M571.5,279.9C571.5,279.9,571.5,279.9,571.5,279.9
			C571.5,279.9,571.5,279.9,571.5,279.9z M559.8,277.5C559.8,277.5,559.8,277.5,559.8,277.5C559.8,277.5,559.8,277.5,559.8,277.5z
			 M558.1,275.1L558.1,275.1L558.1,275.1z M516.8,268.9C516.8,268.9,516.8,268.9,516.8,268.9C516.8,268.9,516.8,268.9,516.8,268.9z"
			/>
		<path class="st2" d="M530.6,190.9h17.4c5.8,0,10.5,4.7,10.5,10.5v165.6c0,5.8-4.7,10.5-10.5,10.5h-17.4c-5.8,0-10.5-4.7-10.5-10.5
			V201.3C520.1,195.6,524.8,190.9,530.6,190.9z"/>
		<path class="st2" d="M570.1,268.5c-5.4,0-10.4-3.4-12.2-8.8c-2.2-6.7,1.4-14,8.1-16.2c11.5-3.8,70-22.3,98-10.7
			c6.5,2.7,9.6,10.2,6.9,16.7c-2.7,6.5-10.2,9.6-16.7,6.9c-14.2-5.9-55.4,3.1-80.1,11.3C572.9,268.3,571.5,268.5,570.1,268.5z"/>
		<path class="st2" d="M520.1,266.1c-2.4,0-4.9-0.7-7-2.1l0,0c-20.5-13.5-82.1-45.6-120.7-32.7c-6.7,2.2-14-1.4-16.2-8.1
			c-2.2-6.7,1.4-14,8.1-16.2c58.3-19.4,139.5,33.4,142.9,35.6c5.9,3.9,7.5,11.8,3.7,17.7C528.4,264,524.3,266.1,520.1,266.1z"/>
		<path class="st2" d="M589.1,421.3c-2.5,0-5-0.7-7.2-2.2c0,0-15.1-9.7-42.5-9.7c-28.3,0-47.3,10.2-47.5,10.3
			c-6.2,3.4-14,1.1-17.4-5.1c-3.4-6.2-1.2-13.9,5-17.4c1-0.6,24.7-13.5,59.9-13.5c35.3,0,54.8,12.7,56.9,14.1c5.8,4,7.3,12,3.3,17.8
			C597.2,419.4,593.1,421.3,589.1,421.3z"/>
	</g>
</g>
</svg>
