<?xml version="1.0" encoding="utf-8"?>
<!-- Generator: Adobe Illustrator 22.0.1, SVG Export Plug-In . SVG Version: 6.00 Build 0)  -->
<svg version="1.1" xmlns="http://www.w3.org/2000/svg" xmlns:xlink="http://www.w3.org/1999/xlink" x="0px" y="0px"
	 viewBox="0 0 1754 1080" style="enable-background:new 0 0 1754 1080;" xml:space="preserve">
<style type="text/css">
	.st0{display:none;}
	.st1{display:inline;fill:#45B449;}
	.st2{fill:#FFFFFF;}
</style>
<g id="Capa_2" class="st0">
	<rect class="st1" width="1755" height="1080"/>
</g>
<g id="Capa_1">
	<g>
		<path class="st2" d="M387.5,725c-7.5,0-14.8-3.7-19-10.5L349.1,684c-0.5-0.7-0.8-1.4-1.1-2c-5.4,1.2-19.2,4-37,4
			c-17.7,0-31.7-3-37.3-4.4c-0.1,0.2-0.3,0.5-0.4,0.7l-18.6,31.8c-3.1,5.1-8.1,8.8-14,10.2c-5.9,1.4-11.9,0.4-17-2.7l-35.2-21.2
			c-9.8-6-13.5-18.4-8.6-28.8l0.3-0.5l11.6-20.3c0.3-0.7,0.6-1.3,0.9-1.9c0,0,0,0,0-0.1c-0.2-0.1-0.4-0.2-0.6-0.2
			c-19.2-8.1-53.3-46.7-57.9-88.9c-21.1,6-34,2-41.3-2.8c-14.2-9.4-16.8-27.3-14.6-39.8c2.4-14,14.1-25.5,26.5-26.1
			c11.6-0.6,19.2,5.1,21.5,11.1c2.1,5.2-1.2,9.5-3.5,12.6c-1.7,2.2-3.4,4.5-3.6,6.7c-0.2,2.2,0.9,4.6,2.5,6.1c0.8,0.8,1.7,1.2,2.3,1
			c3.2-0.5,7.4-2.7,9.8-4.2c5.2-34.6,22.6-63.9,51.9-87.1c23-18.3,46-26.7,52.5-28.8c2.4-0.8,24.1-7.8,53.1-10.4l1.2,13.9
			c-27.5,2.5-47.7,9-49.9,9.7c-6,2-27.1,9.7-48.3,26.5c-27.1,21.5-43,48.8-47.1,80.9c-0.4,2.9-1.7,4.8-8.6,8.6
			c-3.1,1.7-7.8,3.9-12.5,4.7c-4.9,0.8-10-0.9-14-4.5c-4.8-4.4-7.5-11.1-7-17.5c0.5-6.3,4-11,6.4-14.1c0,0,0.1-0.1,0.1-0.1
			c-1.2-0.6-3.3-1.2-6.2-1.1c-5.2,0.3-12.1,6.3-13.5,14.5c-1.5,9,0.5,20.4,8.5,25.7c5.4,3.6,16.1,6.3,36.3-1.1
			c1.9-0.7,4.7-1.7,7.7,0.4l3,2.1l0,3.7c0,17.6,6.8,37.3,19.2,55.5c11.2,16.4,23.7,27,30.7,29.9c3.8,1.6,8.1,3.4,9.8,7.8
			c1.6,4.1-0.2,7.7-2,11.5c-0.3,0.6-0.6,1.3-1,2l-0.3,0.5l-11.6,20.3c-1.7,3.9-0.3,8.4,3.3,10.6l35.2,21.2c2,1.2,4.3,1.6,6.5,1.1
			c2.2-0.5,4.1-1.9,5.2-3.8l18.6-31.8c0.5-0.9,0.7-1.4,0.9-1.9c2.2-6.2,7.1-6.1,10.7-6.1l1.2,0l0.9,0.3c0.1,0,15.4,4.5,36,4.5
			c20.7,0,35.6-4,35.7-4.1l1-0.3l1,0c6,0.1,9,1.9,11.2,6.7c0.3,0.7,0.6,1.3,1.1,2.1l19.3,30.5c2.4,3.9,7.4,5.1,11.4,2.9l36.1-20.3
			c1.4-0.8,2.1-2.7,2.4-3.8c1-3.8,0.3-8.7-1.6-11.7l-9.7-15.5c-0.5-0.9-1-1.6-1.4-2.2c-4.8-7.2-2.9-11,2.7-16.1l1.2-1.1l0.6-0.4
			c0.1,0,7.4-4.7,15.4-12.6c8-8,13-15.9,13.1-15.9l0.5-0.8l0.7-0.6c4.2-3.9,9.6-6,15.3-6h27.4c4.7,0,8.5-3.8,8.5-8.5v-60
			c0-4.8-4.7-9.8-9.3-9.8h-3.5c-0.8,0-1.5,0-2.2,0c-4.3,0.1-10.1,0.3-14.6-7.4l-0.5-0.8l-0.2-0.9c-1.6-6.5-6.9-25.3-12.2-34
			c-6.3-10.3-19-20.4-19.1-20.5l-1.1-0.8l-0.7-1.2c-1.7-3-2.7-6.3-2.9-9.7l0-0.5l2.7-40.9c-0.2-2.5-0.6-3.7-0.8-4.2
			c-0.6,0.1-1.9,0.3-4.2,1.4l-31.6,18.8c-4.4,2.1-9.5,2.8-14.3,1.8l-0.6-0.1l-0.6-0.2c-0.2-0.1-18.6-7.3-43.1-11.4l2.3-13.8
			c23.6,3.9,41.5,10.5,45.3,11.9c1.6,0.2,3.2,0,4.7-0.7l31.6-18.8c2.7-1.3,10.8-5.2,17.7-1.2c6.9,4.1,7.5,13.1,7.7,16l0,0.5
			l-2.7,40.8c0.1,0.8,0.3,1.6,0.6,2.3c3.7,3.1,14.8,12.8,21.1,23.2c6.5,10.7,12,30.9,13.5,36.5c0.5,0,1.1,0,1.6,0
			c0.8,0,1.7-0.1,2.7-0.1h3.5c12.4,0,23.3,11.1,23.3,23.8v60c0,12.4-10.1,22.5-22.5,22.5h-27.4c-1.9,0-3.7,0.6-5.2,1.8
			c-1.7,2.5-6.9,9.9-14.4,17.4c-7.6,7.6-14.7,12.5-17.1,14.1c0.2,0.3,0.4,0.7,0.7,1.1l9.7,15.5c3.9,6.3,5.2,15.2,3.2,22.6
			c-1.5,5.7-4.6,10-9,12.5l-36.1,20.3C395,724.1,391.2,725,387.5,725z M133.4,527.4C133.4,527.4,133.4,527.4,133.4,527.4
			C133.4,527.4,133.4,527.4,133.4,527.4z M485.8,511C485.8,511,485.8,511,485.8,511C485.8,511,485.8,511,485.8,511z"/>
		<circle class="st2" cx="414.3" cy="497.8" r="15.3"/>
		<path class="st2" d="M316.5,420c-4,0-7.2-3.2-7.2-7.2c0-0.8,0.1-1.6,0.4-2.3v-16.4L308,379c-0.4-1.5-0.5-3.1-0.6-5.1
			c-0.1-2.1-0.2-6-1.2-8.5l-4,0c-6.6,7-22.7,20.2-49.5,20.2c-3.9,0-7.9-0.3-12.2-0.9c-41.6-5.8-56.3-41.4-57.8-45.5
			c-0.7-2-0.7-4.1,0-6.1c3.5-9.1,28.1-43.9,75.5-33.9c19.6,4.1,43.4,14.9,49.7,42.3l1.6-10.1c-0.3-1.4-0.2-2.9,0.3-4.3
			c0.1-0.2,0.2-0.5,0.5-0.9c0.6-1.4,1.7-2.7,3.1-3.4c1.1-0.6,2.4-0.9,3.7-0.9c4.3,0,8.8,2.7,8.8,7.6c0,1.5-0.5,3-1.4,4.2l1.5,8.2
			c6.4-12.5,23.2-34.1,62.6-30.6c49.1,4.4,60.3,31.6,62.1,37c0.7,2.1,0.5,4.3-0.4,6.3c-1.9,4-19.9,38.9-60.9,38.3
			c-33.3-0.5-52.5-15.8-59.7-23c-1.4-0.2-2.9-0.8-4.3-1.9c-1,1.2-0.9,2-0.6,3.5c0.3,1.7,0.7,4.6-1.1,7.5c0,0.1-0.1,0.1-0.1,0.2v14.2
			l1.8,16.2c0.7,1.7,0.7,3.6,0,5.4c-0.4,0.9-1.9,3.8-5.6,4.3C318.8,419.7,317.6,420,316.5,420z M335.1,356.3
			c1.2,0.5,2.3,1.2,3.2,2.3c3,3.3,19.4,19.9,51.4,20.4c28.5,0.4,42.9-21.1,47-28.3c-2.8-6-13.7-22.2-49.2-25.4
			c-39.7-3.5-49.6,23.1-51.2,28.5C336,354.6,335.6,355.5,335.1,356.3z M196.8,336.6c3.5,7.7,16.2,30.2,45.7,34.3
			c31,4.3,47-11.7,51.1-16.7c0.6-0.7,1.3-1.3,2.1-1.8c-0.2-0.5-0.3-1-0.4-1.5c-0.1-0.4-0.2-1-0.3-1.8c-0.9-7-3.7-28.4-39.7-36.1
			C219,305.3,201,329.8,196.8,336.6z M334.3,369.1C334.3,369.1,334.3,369.1,334.3,369.1C334.3,369.1,334.3,369.1,334.3,369.1z
			 M327.9,367.8C327.9,367.8,327.9,367.9,327.9,367.8C327.9,367.9,327.9,367.8,327.9,367.8z M327,366.5L327,366.5L327,366.5z
			 M304.4,363.1C304.4,363.1,304.4,363.1,304.4,363.1C304.4,363.1,304.4,363.1,304.4,363.1z"/>
		<path class="st2" d="M316.7,320.5L316.7,320.5c5.8,0,10.5,4.7,10.5,10.5v81c0,5.8-4.7,10.5-10.5,10.5l0,0
			c-5.8,0-10.5-4.7-10.5-10.5v-81C306.2,325.2,310.9,320.5,316.7,320.5z"/>
		<path class="st2" d="M333.5,362.9c-2.9,0-5.7-1.9-6.6-4.8c-1.2-3.7,0.8-7.6,4.4-8.9c6.3-2.1,38.3-12.2,53.6-5.8
			c3.6,1.5,5.3,5.6,3.8,9.1c-1.5,3.6-5.6,5.3-9.1,3.8c-7.8-3.2-30.3,1.7-43.8,6.2C335,362.8,334.3,362.9,333.5,362.9z"/>
		<path class="st2" d="M306.2,361.6c-1.3,0-2.7-0.4-3.8-1.2l0,0c-11.2-7.4-44.9-24.9-65.9-17.9c-3.7,1.2-7.6-0.8-8.9-4.4
			c-1.2-3.7,0.8-7.6,4.4-8.9c31.9-10.6,76.2,18.2,78.1,19.5c3.2,2.1,4.1,6.5,2,9.7C310.7,360.5,308.5,361.6,306.2,361.6z"/>
		<path class="st2" d="M343.9,446.4c-1.4,0-2.7-0.4-3.9-1.2c0,0-8.2-5.3-23.2-5.3c-15.4,0-25.9,5.6-26,5.6c-3.4,1.8-7.6,0.6-9.5-2.8
			c-1.9-3.4-0.7-7.6,2.7-9.5c0.5-0.3,13.5-7.4,32.7-7.4c19.3,0,30,6.9,31.1,7.7c3.2,2.2,4,6.5,1.8,9.7
			C348.3,445.3,346.1,446.4,343.9,446.4z"/>
	</g>
	<g>
		<g>
			<g>
				<path class="st2" d="M749.4,630.6c11-9.6,17.6-22.7,19.9-39.4h5.3c-2.5,17.7-9.5,32-21.1,43c-11.6,10.9-26.5,16.4-44.8,16.4
					c-13.3,0-25.1-3.4-35.6-10.3c-10.4-6.9-18.6-16.9-24.6-30c-5.9-13.1-8.9-28.5-8.9-46.2c0-17.7,3-33.1,8.9-46.2
					c5.9-13.1,14.1-23.1,24.6-30c10.4-6.9,22.3-10.3,35.6-10.3c14,0,25.9,3.5,35.9,10.5c9.9,7,17.4,16,22.4,27c5,11,7.6,22.7,7.6,35
					c0,7.5-0.1,13.1-0.3,16.9H645c0.2,17.3,3.2,31.8,9.2,43.4c5.9,11.7,13.7,20.4,23.2,26.1c9.6,5.7,20,8.6,31.3,8.6
					C724.9,644.9,738.4,640.1,749.4,630.6z M677.4,491.7c-9.6,5.7-17.3,14.4-23.2,26.1c-5.9,11.7-9,26.1-9.2,43.4h124.8
					c0.9-17.3-1.5-31.8-7-43.4c-5.6-11.7-13.2-20.4-22.8-26.1c-9.7-5.7-20.1-8.6-31.2-8.6C697.4,483.1,687,485.9,677.4,491.7z"/>
				<path class="st2" d="M808.2,517.8c5.9-13.1,14.1-23.1,24.6-30c10.4-6.9,22.3-10.3,35.6-10.3c18.2,0,33.2,5.5,44.8,16.4
					c11.6,10.9,18.6,25.3,21.1,43h-5.3c-2.3-16.7-8.9-29.8-19.9-39.4c-11-9.6-24.5-14.4-40.6-14.4c-11.5,0-22.1,3-31.7,8.9
					c-9.7,5.9-17.4,14.9-23.2,27c-5.8,12.1-8.8,27.1-8.8,45c0,17.9,2.9,32.9,8.8,45c5.8,12.1,13.6,21.1,23.2,27
					c9.6,5.9,20.2,8.9,31.7,8.9c16.1,0,29.7-4.8,40.6-14.4c11-9.6,17.6-22.7,19.9-39.4h5.3c-2.5,17.7-9.5,32-21.1,43
					c-11.6,10.9-26.5,16.4-44.8,16.4c-13.3,0-25.1-3.4-35.6-10.3c-10.4-6.9-18.6-16.9-24.6-30c-5.9-13.1-8.9-28.5-8.9-46.2
					C799.3,546.3,802.3,530.9,808.2,517.8z"/>
				<path class="st2" d="M993.2,640.1c-10.6-7-19-17-25.1-30c-6.1-13-9.2-28.4-9.2-46.1c0-17.7,3.1-33.1,9.2-46.1
					c6.1-13,14.5-23,25.1-30c10.6-7,22.6-10.5,35.9-10.5c13.3,0,25.2,3.5,35.9,10.5c10.6,7,18.9,17,25,30c6,13,9,28.4,9,46.1
					c0,17.7-3,33.1-9,46.1c-6,13-14.3,23-25,30c-10.6,7-22.6,10.5-35.9,10.5C1015.8,650.6,1003.8,647.1,993.2,640.1z M1060.9,636
					c9.7-5.9,17.6-14.9,23.6-27c6-12.1,9-27.1,9-45c0-17.9-3-32.9-9-45c-6-12.1-13.9-21.1-23.6-27c-9.7-5.9-20.4-8.9-31.9-8.9
					c-11.5,0-22.2,3-32,8.9c-9.8,5.9-17.8,15-23.8,27.2c-6,12.2-9,27.1-9,44.8c0,17.7,3,32.7,9,44.8c6,12.2,13.9,21.2,23.8,27.2
					c9.8,5.9,20.5,8.9,32,8.9C1040.6,644.9,1051.2,642,1060.9,636z"/>
			</g>
		</g>
		<g>
			<g>
				<path class="st2" d="M1266.6,592.6c2.9,12.5,8.3,21.5,16.2,27.2c7.9,5.6,17.7,8.4,29.3,8.4c8.7,0,16.8-1.5,24.2-4.6
					c7.4-3.1,13.4-6.3,17.9-9.7c2.9,2,5.3,4.7,7.2,8.1c1.9,3.4,2.8,7.1,2.8,11c0,4.9-1.4,9.2-4.2,13c-2.8,3.8-6.7,7-11.5,9.7
					c-4.9,2.7-10.7,4.8-17.3,6.2c-6.7,1.5-13.8,2.2-21.5,2.2c-12.3,0-23.5-2-33.5-5.9c-10.1-3.9-18.7-9.8-25.9-17.8
					c-7.2-7.9-12.8-17.8-16.8-29.5c-4.1-11.7-6.1-25.4-6.1-41.1c0-15.2,2-28.4,5.9-39.6c3.9-11.3,9.3-20.7,16.1-28.3
					c6.8-7.6,14.6-13.2,23.6-16.9c8.9-3.7,18.4-5.5,28.4-5.5c10.2,0,19.5,1.9,28.1,5.7c8.5,3.8,15.8,9.1,21.8,15.8
					c6,6.7,10.8,14.8,14.2,24.2c3.4,9.4,5.1,19.6,5.1,30.6c0,6.9-1.5,12-4.5,15.4c-3,3.4-7.2,5.6-12.6,6.6L1266.6,592.6z
					 M1301.2,514.4c-10.2,0-18.7,4-25.6,11.9c-6.9,8-10.7,19.3-11.5,33.9l69.3-12.1c-0.8-9-3.9-16.9-9-23.7
					C1319.1,517.8,1311.4,514.4,1301.2,514.4z"/>
				<path class="st2" d="M1469.1,516.6c-6.2,0-12,1.2-17.3,3.7c-5.3,2.4-9.9,6-13.7,10.6c-3.9,4.6-6.9,10.4-9.2,17.2
					c-2.3,6.9-3.4,14.8-3.4,23.9c0,18.1,4.1,31.7,12.2,40.9c8.1,9.2,18.6,13.8,31.5,13.8c7.3,0,13.6-1.2,18.9-3.5
					c5.3-2.3,10-4.8,14.2-7.5c2.9,2.4,5.3,5.3,7,8.4c1.8,3.2,2.7,6.9,2.7,11c0,8.3-4.2,15.2-12.5,20.6c-8.3,5.4-19.6,8.1-33.7,8.1
					c-11.9,0-22.7-1.9-32.6-5.7c-9.9-3.8-18.4-9.5-25.4-17.2c-7.1-7.7-12.5-17.3-16.4-28.8c-3.9-11.5-5.8-24.8-5.8-40
					c0-15.4,2.1-28.9,6.2-40.6c4.2-11.6,9.8-21.3,17-29c7.2-7.7,15.5-13.5,25.1-17.2c9.6-3.8,19.8-5.7,30.6-5.7
					c13.9,0,25.1,2.9,33.4,8.6c8.3,5.8,12.5,12.8,12.5,21.1c0,3.9-0.9,7.5-2.7,10.6c-1.8,3.2-3.8,5.8-6.1,7.7
					c-4.2-2.7-8.8-5.2-13.9-7.5C1482.5,517.8,1476.3,516.6,1469.1,516.6z"/>
				<path class="st2" d="M1676.5,571.7c0,14.2-1.8,27-5.5,38.4c-3.6,11.4-8.8,21.1-15.4,29.2c-6.7,8.1-14.7,14.3-24,18.5
					c-9.4,4.3-19.9,6.4-31.5,6.4c-11.6,0-22.1-2.1-31.5-6.4c-9.4-4.3-17.4-10.4-24-18.4c-6.7-7.9-11.8-17.6-15.4-29
					c-3.6-11.4-5.5-24.3-5.5-38.7c0-14.2,1.8-27,5.5-38.4c3.6-11.4,8.8-21,15.6-29c6.8-7.9,14.8-14.1,24.2-18.3
					c9.4-4.3,19.8-6.4,31.2-6.4c11.4,0,21.8,2.1,31.2,6.4c9.4,4.3,17.4,10.5,24.2,18.5c6.8,8.1,12,17.8,15.6,29.2
					C1674.7,545.1,1676.5,557.7,1676.5,571.7z M1600.1,516.2c-11.2,0-20.1,4.8-26.5,14.5c-6.4,9.7-9.7,23.3-9.7,40.9
					c0,17.9,3.2,31.6,9.5,41.1c6.3,9.5,15.2,14.3,26.7,14.3c11.4,0,20.3-4.8,26.7-14.5c6.3-9.7,9.5-23.3,9.5-40.9
					c0-17.6-3.2-31.3-9.7-40.9C1620.1,521.1,1611.3,516.2,1600.1,516.2z"/>
			</g>
		</g>
		<rect x="1154.9" y="468.2" class="st2" width="9.9" height="181"/>
	</g>
</g>
</svg>
